<?xml version="1.0" encoding="utf-8"?>
<!-- Generator: Adobe Illustrator 19.2.1, SVG Export Plug-In . SVG Version: 6.00 Build 0)  -->
<svg version="1.1" xmlns="http://www.w3.org/2000/svg" xmlns:xlink="http://www.w3.org/1999/xlink" x="0px" y="0px"
	 viewBox="0 0 60 60" style="enable-background:new 0 0 60 60;" xml:space="preserve">
<style type="text/css">
	.st0{display:none;}
	.st1{display:inline;}
	.st2{fill:none;stroke:#231F20;stroke-miterlimit:10;}
	.st3{display:inline;fill:none;stroke:#231F20;stroke-miterlimit:10;}
	.st4{display:inline;fill:none;stroke:#231F20;stroke-miterlimit:5;}
	.st5{fill:none;stroke:#231F20;stroke-miterlimit:5;}
	.st6{fill:none;stroke:#231F20;stroke-miterlimit:2;}
	.st7{fill:none;stroke:#231F20;stroke-miterlimit:8;}
	.st8{fill:none;stroke:#231F20;stroke-miterlimit:6;}
	.st9{fill:none;stroke:#231F20;stroke-miterlimit:3;}
	.st10{fill:none;stroke:#231F20;stroke-linejoin:bevel;stroke-miterlimit:20;}
	.st11{fill:none;stroke:#231F20;stroke-linejoin:round;stroke-miterlimit:10;}
</style>
<g id="char-asterix" class="st0">
	<g class="st1">
		<g>
			<line class="st2" x1="5" y1="22.5" x2="20" y2="37.5"/>
			<line class="st2" x1="20" y1="22.5" x2="5" y2="37.5"/>
		</g>
		<g>
			<line class="st2" x1="0" y1="30" x2="25" y2="30"/>
			<line class="st2" x1="12.5" y1="17.5" x2="12.5" y2="42.5"/>
		</g>
	</g>
</g>
<g id="char-plus" class="st0">
	<g class="st1">
		<line class="st2" x1="0" y1="30" x2="30" y2="30"/>
		<line class="st2" x1="15" y1="15" x2="15" y2="45"/>
	</g>
</g>
<g id="char-equal" class="st0">
	<g class="st1">
		<line class="st2" x1="0" y1="25" x2="30" y2="25"/>
		<line class="st2" x1="0" y1="35" x2="30" y2="35"/>
	</g>
</g>
<g id="char-dollar" class="st0">
	<g class="st1">
		<path class="st2" d="M35,7.5c-1.6,2.1-4.2,3.3-6.8,3.2c-2.1-0.1-4.1-1.1-6.1-1.8c-5.5-2-12.6-2.3-17.5,1.3c-2.7,2-4.5,5.1-4.5,8.5
			C0,24.9,5.9,30,13.1,30h8.8C29.1,30,35,35,35,41.2c0,3.4-1.8,6.5-4.5,8.5C25.6,53.4,18.4,53,12.9,51c-2-0.7-4-1.7-6.1-1.8
			c-2.6-0.1-5.2,1.1-6.8,3.2"/>
		<g>
			<line class="st2" x1="14.7" y1="0" x2="14.7" y2="60"/>
			<line class="st2" x1="20.3" y1="0" x2="20.3" y2="60"/>
		</g>
	</g>
</g>
<g id="char-at" class="st0">
	<path class="st3" d="M32.5,57.7c-3,1.5-6.4,2.3-10,2.3C10.1,60,0,49.9,0,37.5S10.1,15,22.5,15H45v28.1c0,3.1-2.5,5.6-5.6,5.6
		c-3.1,0-5.6-2.5-5.6-5.6V26.2H22.5c-6.2,0-11.2,5-11.2,11.2s5,11.2,11.2,11.2h0c6.2,0,11.3-5,11.3-11.2"/>
</g>
<g id="char-caret" class="st0">
	<polyline class="st4" points="15,15 7.5,0 0,15 	"/>
</g>
<g id="char-bracketleft" class="st0">
	<polyline class="st3" points="18,0 0,0 0,60 18,60 	"/>
</g>
<g id="char-bracketright" class="st0">
	<polyline class="st3" points="0,60 18,60 18,0 0,0 	"/>
</g>
<g id="char-curlyleft" class="st0">
	<path class="st3" d="M18.8,0C13.9,0,8.7,2.3,6,6.4c-2.9,4.5-2,9.3-0.5,14.1c0.9,2.8,1.5,6.3-0.5,8.8c-1.2,1.6-3.3,2.5-5.1,3.1
		c1.8,0.7,3.8,1.6,5.1,3.1c2,2.5,1.4,6,0.5,8.8C4,49.3,3.1,54.1,6,58.6c2.7,4.1,7.9,6.4,12.7,6.4"/>
</g>
<g id="char-curlyright" class="st0">
	<path class="st3" d="M0,65c4.8,0,10.1-2.3,12.7-6.4c2.9-4.5,2-9.3,0.5-14.1c-0.9-2.8-1.5-6.3,0.5-8.8c1.2-1.6,3.3-2.5,5.1-3.1
		c-1.8-0.7-3.8-1.6-5.1-3.1c-2-2.5-1.4-6-0.5-8.8c1.5-4.8,2.5-9.6-0.5-14.1C10.1,2.3,4.8,0,0,0"/>
</g>
<g id="char-lessthan" class="st0">
	<polyline class="st4" points="27.5,11.2 0,30 27.5,48.8 	"/>
</g>
<g id="char-greaterthan" class="st0">
	<polyline class="st4" points="0,48.8 27.5,30 0,11.2 	"/>
</g>
<g id="char-percent" class="st0">
	<g class="st1">
		<circle class="st2" cx="12.5" cy="12.5" r="12.5"/>
		<circle class="st2" cx="43.8" cy="47.5" r="12.5"/>
		<g>
			<path class="st5" d="M12.5,0c2.9,0,5.7,0,8.4,0.6c2.6,0.6,5,1.5,7.5,2.3c1.9,0.6,4,1.1,6.2,1.1c4-0.1,7.2-2,9.2-4L12.5,60"/>
		</g>
	</g>
</g>
<g id="char-parenthleft" class="st0">
	<path class="st3" d="M18.8,0C18.8,0,0,7.5,0,32.5S18.8,65,18.8,65"/>
</g>
<g id="char-parenthright" class="st0">
	<path class="st3" d="M0,0c0,0,18.8,7.5,18.8,32.5S0,65,0,65"/>
</g>
<g id="char-slash" class="st0">
	<line class="st3" x1="18.8" y1="0" x2="0" y2="65"/>
</g>
<g id="char-backslash" class="st0">
	<line class="st3" x1="0" y1="0" x2="18.8" y2="65"/>
</g>
<g id="char-bar" class="st0">
	<line class="st3" x1="0" y1="0" x2="0" y2="65"/>
</g>
<g id="char-pound" class="st0">
	<g class="st1">
		<line class="st2" x1="15" y1="15" x2="6.2" y2="40"/>
		<line class="st2" x1="22.5" y1="15" x2="13.8" y2="40"/>
		<line class="st2" x1="0" y1="30" x2="27.5" y2="30"/>
		<line class="st2" x1="2.5" y1="23.8" x2="30" y2="23.8"/>
	</g>
</g>
<g id="char-ampersand" class="st0">
	<g class="st1">
		<path class="st2" d="M53.8,61.2C35,51.2,7.5,28.8,7.5,12.5C7.5,5.6,13.1,0,20,0c6.9,0,12.5,5.6,12.5,12.5S26.9,25,20,25
			C9,25,0,34,0,45s9,20,20,20c11,0,20-9,20-20V30"/>
		<line class="st2" x1="26.2" y1="30" x2="53.8" y2="30"/>
	</g>
</g>
<g id="char-exclamation" class="st0">
	<g class="st1">
		<circle class="st2" cx="12.5" cy="57.5" r="2.5"/>
		<path class="st2" d="M0,0h5c4.1,0,7.5,3.4,7.5,7.5l0,37.5"/>
	</g>
</g>
<g id="char-period" class="st0">
	<circle class="st3" cx="2.5" cy="57.5" r="2.5"/>
</g>
<g id="char-question" class="st0">
	<g class="st1">
		<circle class="st2" cx="18.8" cy="57.5" r="2.5"/>
		<path class="st2" d="M0,18.8C0,8.4,8.4,0,18.8,0s18.8,8.4,18.8,18.8s-8.4,18.8-18.8,18.8V45"/>
	</g>
</g>
<g id="char-semicolon" class="st0">
	<g class="st1">
		<circle class="st2" cx="5" cy="37.5" r="2.5"/>
		<path class="st2" d="M2.5,57.5C2.5,56.1,3.6,55,5,55s2.5,1.1,2.5,2.5C7.4,61.9,0,65,0,65"/>
	</g>
</g>
<g id="char-colon" class="st0">
	<g class="st1">
		<circle class="st2" cx="2.5" cy="37.5" r="2.5"/>
		<circle class="st2" cx="2.5" cy="57.5" r="2.5"/>
	</g>
</g>
<g id="char-tilde" class="st0">
	<path class="st3" d="M0,32.5c0,0,1.2-6.2,6.9-6.2s5,7.5,10.9,7.5s7.1-6.2,7.1-6.2"/>
</g>
<g id="char-comma" class="st0">
	<path class="st3" d="M2.5,57.5C2.5,56.1,3.6,55,5,55s2.5,1.1,2.5,2.5C7.4,61.9,0,65,0,65"/>
</g>
<g id="char-quote" class="st0">
	<path class="st3" d="M2.5,2.5C2.5,1.1,3.6,0,5,0s2.5,1.1,2.5,2.5C7.4,6.9,0,10,0,10"/>
</g>
<g id="char-doublequote" class="st0">
	<g class="st1">
		<path class="st2" d="M2.5,2.5C2.5,1.1,3.6,0,5,0s2.5,1.1,2.5,2.5C7.4,6.9,0,10,0,10"/>
		<path class="st2" d="M10,2.5C10,1.1,11.1,0,12.5,0S15,1.1,15,2.5C14.9,6.9,7.5,10,7.5,10"/>
	</g>
</g>
<g id="char-underscore" class="st0">
	<line class="st3" x1="0" y1="60" x2="40" y2="60"/>
</g>
<g id="char-dash" class="st0">
	<line class="st3" x1="0" y1="30" x2="27.5" y2="30"/>
</g>
<g id="char-9" class="st0">
	<g class="st1">
		<circle class="st2" cx="20" cy="20" r="20"/>
		<path class="st2" d="M39.2,14.3c0,0,4.6,16.9-9.2,30.7S0,65,0,65"/>
	</g>
</g>
<g id="char-8" class="st0">
	<g class="st1">
		<circle class="st2" cx="20" cy="45" r="20"/>
		<circle class="st2" cx="20" cy="12.5" r="12.5"/>
	</g>
</g>
<g id="char-7" class="st0">
	<path class="st3" d="M10,65c0,0,0-22.5,10-40S42.5,0,42.5,0H0v7.5"/>
</g>
<g id="char-6" class="st0">
	<g class="st1">
		<circle class="st2" cx="20" cy="45" r="20"/>
		<path class="st2" d="M0.8,50.7c0,0-4.6-16.9,9.2-30.7S40,0,40,0"/>
	</g>
</g>
<g id="char-5" class="st0">
	<path class="st3" d="M0,45c0,11,9,20,20,20c11,0,20-9,20-20s-9-20-20-20H7.5V0h25v7.5"/>
</g>
<g id="char-4" class="st0">
	<g class="st1">
		<g>
			<line class="st2" x1="32.5" y1="7.5" x2="32.5" y2="60"/>
			<path class="st2" d="M16.2,0c0,0,0.1,6.4-5,15S0,30,0,30h46.2"/>
		</g>
		<line class="st2" x1="18.8" y1="60" x2="46.2" y2="60"/>
	</g>
</g>
<g id="char-3" class="st0">
	<path class="st3" d="M7.5,7.5V0h25L20,25c11,0,20,9,20,20s-9,20-20,20C9,65,0,56,0,45"/>
</g>
<g id="char-2" class="st0">
	<path class="st3" d="M40,53v7.5c0,0-40,0-40,0c-0.2-0.1,2-6.2,2.1-6.6c4.1-12.1,16.4-18,24.5-27c2.5-2.7,4.5-5.9,5.6-9.4
		c0.9-3.1,0.5-7.2-0.8-10.1c-1.1-2.4-3.7-5.1-6.2-6.1C23.7,0.5,21.7,0,20,0C13.1,0,7.5,5.6,7.5,12.5"/>
</g>
<g id="char-1" class="st0">
	<g class="st1">
		<line class="st2" x1="16.2" y1="0" x2="16.2" y2="60"/>
		<path class="st2" d="M16.2,0c0,0,0.1,3.2-5,7.5S0,15,0,15"/>
		<line class="st2" x1="2.5" y1="60" x2="30" y2="60"/>
	</g>
</g>
<g id="char-0" class="st0">
	<path class="st3" d="M40,45c0,11-9,20-20,20C9,65,0,56,0,45V20C0,9,9,0,20,0c11,0,20,9,20,20V45z"/>
</g>
<g id="char-Z" class="st0">
	<polyline class="st3" points="32.5,46.2 32.5,60 0,60 32.5,0 0,0 0,13.8 	"/>
</g>
<g id="char-Y" class="st0">
	<g class="st1">
		<line class="st2" x1="0" y1="0" x2="27.5" y2="0"/>
		<line class="st2" x1="32.5" y1="0" x2="60" y2="0"/>
		<line class="st2" x1="16.2" y1="60" x2="43.8" y2="60"/>
		<polyline class="st2" points="46.2,0 30,30 13.8,0 		"/>
		<line class="st2" x1="30" y1="30.2" x2="30" y2="60"/>
	</g>
</g>
<g id="char-X" class="st0">
	<g class="st1">
		<line class="st2" x1="0" y1="0" x2="27.5" y2="0"/>
		<line class="st2" x1="32.5" y1="0" x2="60" y2="0"/>
		<line class="st2" x1="32.5" y1="60" x2="60" y2="60"/>
		<line class="st2" x1="0" y1="60" x2="27.5" y2="60"/>
		<line class="st2" x1="13.8" y1="0.2" x2="46.2" y2="60.2"/>
		<line class="st2" x1="46.2" y1="0.2" x2="13.8" y2="60.2"/>
	</g>
</g>
<g id="char-W" class="st0">
	<g class="st1">
		<line class="st2" x1="0" y1="0" x2="27.5" y2="0"/>
		<line class="st2" x1="30" y1="0" x2="57.5" y2="0"/>
		<line class="st2" x1="60" y1="0" x2="87.5" y2="0"/>
		<polyline class="st2" points="13.8,0.2 27.5,60 43.8,0 43.9,0 60,60 73.8,0.2 		"/>
	</g>
</g>
<g id="char-V" class="st0">
	<g class="st1">
		<line class="st2" x1="32.5" y1="0" x2="60" y2="0"/>
		<line class="st2" x1="0" y1="0" x2="27.5" y2="0"/>
		<polyline class="st2" points="13.8,0 30,60 46.2,0 		"/>
	</g>
</g>
<g id="char-U" class="st0">
	<g class="st1">
		<line class="st2" x1="32.5" y1="0" x2="60" y2="0"/>
		<line class="st2" x1="0" y1="0" x2="27.5" y2="0"/>
		<path class="st2" d="M13.8,0v43.8C13.8,52.7,21,60,30,60s16.2-7.3,16.2-16.2V0"/>
	</g>
</g>
<g id="char-T" class="st0">
	<g class="st1">
		<line class="st2" x1="16.2" y1="60" x2="43.8" y2="60"/>
		<line class="st2" x1="30" y1="60" x2="30" y2="0"/>
		<polyline class="st2" points="0,13.8 0,0 60,0 60,13.8 		"/>
	</g>
</g>
<g id="char-S" class="st0">
	<g class="st1">
		<line class="st2" x1="0" y1="45" x2="0" y2="60"/>
		<path class="st2" d="M0,54c7-9.1,11.8,2.9,18.2,5.3C20,60,22,60,23.9,60C32.8,60,40,53.3,40,45c0-8.3-7.5-15-16.4-15h-7.4
			C7.2,30,0,23.3,0,15S7.2,0,16.1,0c1.7,0,3.3,0,5,0.2C28.9,1.5,33.7,8.2,40,0"/>
	</g>
</g>
<g id="char-R" class="st0">
	<g class="st1">
		<line class="st2" x1="0" y1="60" x2="27.5" y2="60"/>
		<line class="st2" x1="32.5" y1="60" x2="60" y2="60"/>
		<line class="st2" x1="13.8" y1="0" x2="13.8" y2="60.2"/>
		<path class="st6" d="M0,0h31.2c8.3,0,15,6.7,15,15s-6.7,15-15,15H30H13.8"/>
		<path class="st6" d="M30,29.8"/>
		<path class="st6" d="M46.2,60c0-16.6-13.4-30-30-30"/>
	</g>
</g>
<g id="char-Q">
	<g>
		<circle class="st2" cx="30" cy="30" r="30"/>
		<path class="st2" d="M21.5,58.8c-5.2-7.2-4.3-17.5,2.4-22.4c6.7-4.9,16.4-3,21.6,4.2c1,1.3,2,2.7,2.7,4.2
			C51.8,51.8,49.6,59.7,60,60V45"/>
	</g>
</g>
<g id="char-P" class="st0">
	<g class="st1">
		<path class="st2" d="M13.8,30h17.5c8.3,0,15-6.7,15-15s-6.7-15-15-15H0"/>
		<line class="st2" x1="13.8" y1="0" x2="13.8" y2="60"/>
		<line class="st2" x1="0" y1="60" x2="27.5" y2="60"/>
	</g>
</g>
<g id="char-O" class="st0">
	<circle class="st3" cx="30" cy="30" r="30"/>
</g>
<g id="char-N" class="st0">
	<g class="st1">
		<line class="st2" x1="32.5" y1="0" x2="60" y2="0"/>
		<line class="st2" x1="0" y1="60" x2="27.5" y2="60"/>
		<line class="st2" x1="13.8" y1="0" x2="13.8" y2="60"/>
		<polyline class="st7" points="0,0 13.8,0 46.2,60 46.2,0 		"/>
	</g>
</g>
<g id="char-M" class="st0">
	<g class="st1">
		<g>
			<line class="st2" x1="32.5" y1="60" x2="60" y2="60"/>
			<line class="st2" x1="0" y1="60" x2="27.5" y2="60"/>
			<line class="st8" x1="46.2" y1="0" x2="46.2" y2="60"/>
			<line class="st8" x1="13.8" y1="60" x2="13.8" y2="0"/>
		</g>
		<polyline class="st8" points="0,0 13.8,0 30,43.8 46.2,0 60,0 		"/>
	</g>
</g>
<g id="char-L" class="st0">
	<g class="st1">
		<line class="st2" x1="1.2" y1="0" x2="28.8" y2="0"/>
		<polyline class="st2" points="47.5,46.2 47.5,60 0,60 		"/>
		<line class="st2" x1="15" y1="0" x2="15" y2="60"/>
	</g>
</g>
<g id="char-K" class="st0">
	<g class="st1">
		<line class="st2" x1="0" y1="0" x2="27.5" y2="0"/>
		<line class="st2" x1="32.5" y1="0" x2="60" y2="0"/>
		<line class="st2" x1="0" y1="60" x2="27.5" y2="60"/>
		<line class="st2" x1="32.5" y1="60" x2="60" y2="60"/>
		<line class="st2" x1="13.8" y1="0" x2="13.8" y2="60"/>
		<path class="st6" d="M46.2,60c0-16.6-13.4-30-30-30"/>
		<path class="st6" d="M46.2,0c0,16.6-13.4,30-30,30h-2.5"/>
	</g>
</g>
<g id="char-J" class="st0">
	<g class="st1">
		<line class="st2" x1="32.5" y1="0" x2="60" y2="0"/>
		<line class="st2" x1="0" y1="30" x2="27.5" y2="30"/>
		<path class="st2" d="M13.8,30v13.8C13.8,52.7,21,60,30,60c9,0,16.2-7.3,16.2-16.2V0"/>
	</g>
</g>
<g id="char-I" class="st0">
	<g class="st1">
		<line class="st2" x1="0" y1="0" x2="27.5" y2="0"/>
		<line class="st2" x1="0" y1="60" x2="27.5" y2="60"/>
		<line class="st2" x1="13.8" y1="60" x2="13.8" y2="0"/>
	</g>
</g>
<g id="char-H" class="st0">
	<g class="st1">
		<line class="st2" x1="0" y1="0" x2="27.5" y2="0"/>
		<line class="st2" x1="32.5" y1="0" x2="60" y2="0"/>
		<line class="st2" x1="0" y1="60" x2="27.5" y2="60"/>
		<line class="st2" x1="32.5" y1="60" x2="60" y2="60"/>
		<line class="st2" x1="13.8" y1="0" x2="13.8" y2="60"/>
		<line class="st2" x1="46.2" y1="60" x2="46.2" y2="0"/>
		<line class="st2" x1="13.8" y1="29.8" x2="46.2" y2="29.8"/>
	</g>
</g>
<g id="char-G" class="st0">
	<g class="st1">
		<polyline class="st2" points="60,7.5 54.6,12.9 49.4,18.1 54.6,12.9 		"/>
		<line class="st2" x1="30" y1="30" x2="73.8" y2="30"/>
		<path class="st9" d="M60,30c0,16.6-13.4,30-30,30C13.4,60,0,46.6,0,30C0,13.4,13.4,0,30,0c10.2,0,19.2,5.1,24.6,12.9"/>
		<line class="st2" x1="60" y1="30" x2="60" y2="60"/>
	</g>
</g>
<g id="char-F" class="st0">
	<g class="st1">
		<line class="st2" x1="30" y1="43.8" x2="30" y2="16.2"/>
		<polyline class="st2" points="0,0 46.2,0 46.2,13.8 		"/>
		<line class="st2" x1="13.8" y1="0" x2="13.8" y2="60"/>
		<line class="st2" x1="13.8" y1="30" x2="30" y2="30"/>
		<line class="st2" x1="0" y1="60" x2="30" y2="60"/>
	</g>
</g>
<g id="char-E" class="st0">
	<g class="st1">
		<line class="st2" x1="30" y1="43.8" x2="30" y2="16.2"/>
		<polyline class="st2" points="0,0 46.2,0 46.2,13.8 		"/>
		<polyline class="st2" points="0,60 46.2,60 46.2,46.2 		"/>
		<line class="st2" x1="13.8" y1="0" x2="13.8" y2="60"/>
		<line class="st2" x1="13.8" y1="30" x2="30" y2="30"/>
	</g>
</g>
<g id="char-D" class="st0">
	<g class="st1">
		<path class="st2" d="M0,0h30c16.6,0,30,13.4,30,30S46.6,60,30,60H0"/>
		<line class="st2" x1="13.8" y1="0" x2="13.8" y2="60"/>
	</g>
</g>
<g id="char-C" class="st0">
	<g class="st1">
		<path class="st2" d="M60,7.5l-5.4,5.4l-5.2,5.2l5.2-5.2C49.2,5.1,40.2,0,30,0C13.4,0,0,13.4,0,30s13.4,30,30,30
			c10.2,0,19.2-5.1,24.6-12.9"/>
	</g>
</g>
<g id="char-B" class="st0">
	<g class="st1">
		<path class="st2" d="M0,60h45c8.3,0,15-6.7,15-15s-6.7-15-15-15H30"/>
		<path class="st2" d="M13.8,30h17.5c8.3,0,15-6.7,15-15s-6.7-15-15-15H0"/>
		<line class="st2" x1="13.8" y1="0" x2="13.8" y2="60"/>
	</g>
</g>
<g id="char-A" class="st0">
	<g class="st1">
		<line class="st2" x1="13.8" y1="60" x2="30" y2="0"/>
		<line class="st2" x1="30" y1="0" x2="46.2" y2="60"/>
		<line class="st2" x1="21.2" y1="30" x2="38.8" y2="30"/>
		<line class="st2" x1="0" y1="60" x2="27.5" y2="60"/>
		<line class="st2" x1="32.5" y1="60" x2="60" y2="60"/>
		<line class="st2" x1="15" y1="0" x2="42.5" y2="0"/>
	</g>
</g>
<g id="char-z" class="st0">
	<polyline class="st3" points="32.5,46.2 32.5,60 0,60 32.5,15 0,15 0,28.8 	"/>
</g>
<g id="char-y" class="st0">
	<g class="st1">
		<path class="st2" d="M31,42.5"/>
		<line class="st2" x1="60" y1="15" x2="32.5" y2="15"/>
		<line class="st2" x1="27.5" y1="15" x2="0" y2="15"/>
		<line class="st2" x1="13.8" y1="15" x2="30" y2="60"/>
		<path class="st2" d="M46.2,15c0,0-12.3,34.1-16.2,45S20,76.3,20,90"/>
		<path class="st2" d="M46.2,80.2c-4.2,5.4-7.3,1-12.4,0.2c-1.1-0.2-2.2-0.2-3.3-0.2C24.7,80.2,20,84.6,20,90"/>
	</g>
</g>
<g id="char-x" class="st0">
	<g class="st1">
		<path class="st2" d="M30,60"/>
		<path class="st2" d="M31,42.5"/>
		<line class="st2" x1="60" y1="15" x2="32.5" y2="15"/>
		<line class="st2" x1="27.5" y1="15" x2="0" y2="15"/>
		<line class="st2" x1="60" y1="60" x2="32.5" y2="60"/>
		<line class="st2" x1="27.5" y1="60" x2="0" y2="60"/>
		<line class="st2" x1="13.8" y1="15" x2="46.2" y2="60"/>
		<line class="st2" x1="46.2" y1="15" x2="13.8" y2="60"/>
	</g>
</g>
<g id="char-w" class="st0">
	<g class="st1">
		<line class="st2" x1="82.5" y1="15" x2="55" y2="15"/>
		<line class="st2" x1="27.5" y1="15" x2="0" y2="15"/>
		<polyline class="st2" points="68.8,15 52.5,60 41.2,30 30,60 13.8,15 		"/>
	</g>
</g>
<g id="char-v" class="st0">
	<g class="st1">
		<path class="st2" d="M31,42.5"/>
		<line class="st2" x1="60" y1="15" x2="32.5" y2="15"/>
		<line class="st2" x1="27.5" y1="15" x2="0" y2="15"/>
		<polyline class="st2" points="13.8,15 30,60 46.2,15 		"/>
	</g>
</g>
<g id="char-u" class="st0">
	<g class="st1">
		<path class="st2" d="M13.8,15v28.8C13.8,52.7,21,60,30,60c9,0,16.2-7.3,16.2-16.2V15"/>
		<line class="st2" x1="60" y1="15" x2="32.5" y2="15"/>
		<line class="st2" x1="27.5" y1="15" x2="0" y2="15"/>
	</g>
</g>
<g id="char-t" class="st0">
	<g class="st1">
		<path class="st2" d="M35,60h-8.8c-4.1,0-7.5-3.4-7.5-7.5V0"/>
		<line class="st2" x1="37.5" y1="15" x2="0" y2="15"/>
	</g>
</g>
<g id="char-s" class="st0">
	<path class="st3" d="M35,15c-1.6,2.1-4.2,3.3-6.8,3.2c-2.1-0.1-4.1-1.1-6.1-1.8c-5.5-2-12.6-2.3-17.5,1.3c-2.7,2-4.5,5.1-4.5,8.5
		c0,6.2,5.9,11.2,13.1,11.2h8.8c7.2,0,13.1,5,13.1,11.2c0,3.4-1.8,6.5-4.5,8.5c-4.9,3.7-12.1,3.3-17.5,1.3c-2-0.7-4-1.7-6.1-1.8
		C4.2,56.7,1.6,58,0,60"/>
</g>
<g id="char-r" class="st0">
	<g class="st1">
		<line class="st2" x1="0" y1="60" x2="27.5" y2="60"/>
		<path class="st2" d="M13.8,30v-7.5c0-4.1-3.4-7.5-7.5-7.5H0"/>
		<path class="st2" d="M53.8,15c-6.3,8.2-11.1,1.5-18.9,0.2c-1.6-0.3-3.3-0.2-5-0.2c-8.9,0-16.1,6.7-16.1,15l0,0v30"/>
	</g>
</g>
<g id="char-q" class="st0">
	<g class="st1">
		<circle class="st2" cx="22.5" cy="37.5" r="22.5"/>
		<path class="st10" d="M67.5,81.6c-3.6,4.6-6.2,0.9-10.6,0.1c-0.9-0.2-1.9-0.1-2.8-0.1c-5,0-9.1,3.8-9.1,8.4V22.5
			c0-4.1,3.4-7.5,7.5-7.5h6.2"/>
	</g>
</g>
<g id="char-p" class="st0">
	<g class="st1">
		<path class="st2" d="M30,15"/>
		<line class="st2" x1="0" y1="90" x2="27.5" y2="90"/>
		<path class="st2" d="M13.8,90V22.5c0-4.1-3.4-7.5-7.5-7.5H0"/>
		<circle class="st2" cx="36.2" cy="37.5" r="22.5"/>
	</g>
</g>
<g id="char-o" class="st0">
	<circle class="st3" cx="22.5" cy="37.5" r="22.5"/>
</g>
<g id="char-n" class="st0">
	<g class="st1">
		<path class="st2" d="M46.2,60V31.2C46.2,22.3,39,15,30,15c-9,0-16.2,7.3-16.2,16.2V60"/>
		<line class="st2" x1="0" y1="60" x2="27.5" y2="60"/>
		<line class="st2" x1="32.5" y1="60" x2="60" y2="60"/>
		<path class="st2" d="M13.8,30v-7.5c0-4.1-3.4-7.5-7.5-7.5H0"/>
	</g>
</g>
<g id="char-m" class="st0">
	<g class="st1">
		<line class="st2" x1="0" y1="60" x2="27.5" y2="60"/>
		<path class="st2" d="M78.8,60V31.2c0-9-7.3-16.2-16.2-16.2c-9,0-16.2,7.3-16.2,16.2C46.2,22.3,39,15,30,15
			c-9,0-16.2,7.3-16.2,16.2V60"/>
		<line class="st2" x1="65" y1="60" x2="92.5" y2="60"/>
		<path class="st2" d="M13.8,30v-7.5c0-4.1-3.4-7.5-7.5-7.5H0"/>
	</g>
</g>
<g id="char-l" class="st0">
	<g class="st1">
		<line class="st2" x1="0" y1="60" x2="27.5" y2="60"/>
		<path class="st2" d="M0,0h6.2c4.1,0,7.5,3.4,7.5,7.5l0,52.5"/>
	</g>
</g>
<g id="char-k" class="st0">
	<g class="st1">
		<line class="st2" x1="0" y1="60" x2="27.5" y2="60"/>
		<line class="st2" x1="32.5" y1="60" x2="60" y2="60"/>
		<line class="st2" x1="32.5" y1="15" x2="60" y2="15"/>
		<path class="st2" d="M0,0h6.2c4.1,0,7.5,3.4,7.5,7.5l0,52.5"/>
		<line class="st11" x1="23.8" y1="40" x2="46.2" y2="60"/>
		<line class="st11" x1="46.2" y1="15" x2="13.8" y2="51.2"/>
	</g>
</g>
<g id="char-j" class="st0">
	<g class="st1">
		<g>
			<g>
				<line class="st2" x1="13.7" y1="2.5" x2="13.7" y2="8.8"/>
			</g>
		</g>
		<path class="st2" d="M-15,90c1.1-2,2.9-3.9,5.1-4c1.2,0,2.4,0.5,3.4,1.1c1.4,0.8,2.7,1.7,4.2,2.3C-0.7,90,0.9,90,2.5,90
			c6.2,0,11.2-5,11.2-11.2l0-56.2c0-4.1-3.4-7.5-7.5-7.5H0"/>
	</g>
</g>
<g id="char-i" class="st0">
	<g class="st1">
		<line class="st2" x1="0" y1="60" x2="27.5" y2="60"/>
		<path class="st2" d="M13.7,60V22.5c0-4.1-3.4-7.5-7.5-7.5H0"/>
		<line class="st2" x1="13.7" y1="2.5" x2="13.7" y2="8.8"/>
	</g>
</g>
<g id="char-h" class="st0">
	<g class="st1">
		<path class="st2" d="M46.2,60V31.2C46.2,22.3,39,15,30,15c-9,0-16.2,7.3-16.2,16.2V60"/>
		<line class="st2" x1="0" y1="60" x2="27.5" y2="60"/>
		<line class="st2" x1="32.5" y1="60" x2="60" y2="60"/>
		<path class="st2" d="M13.8,30V7.5c0-4.1-3.4-7.5-7.5-7.5H0"/>
	</g>
</g>
<g id="char-g" class="st0">
	<g class="st1">
		<circle class="st2" cx="22.5" cy="37.5" r="22.5"/>
		<path class="st2" d="M21.7,15c2,0,4,0,5.9,0.3C36.9,17,42.6,25.6,50.1,15"/>
		<path class="st2" d="M22.5,60c0,0-5-0.3-5,3.7s5,3.7,5,3.7h10c6.2,0,11.2,5,11.2,11.2S38.7,90,32.5,90v0c-1.8,0-3.6,0-5.4-0.4
			C18.7,87.5,12.8,77.2,6.2,90"/>
	</g>
</g>
<g id="char-f" class="st0">
	<g class="st1">
		<line class="st2" x1="0" y1="30" x2="27.5" y2="30"/>
		<line class="st2" x1="0" y1="60" x2="27.5" y2="60"/>
		<path class="st2" d="M43.8,0c-1.1,1.1-2.4,2.2-3.7,2.9c-3.6,2-6.7-0.5-10-1.8c-5-2-10.3-1.7-14.3,3.4c-2.2,2.8-1.9,7.2-1.9,10.5
			V60"/>
	</g>
</g>
<g id="char-e" class="st0">
	<path class="st3" d="M1.2,30h42.5c-3.1-8.7-11.4-15-21.2-15C10.1,15,0,25.1,0,37.5C0,49.9,10.1,60,22.5,60c9.8,0,18.1-6.3,21.2-15"
		/>
</g>
<g id="char-d" class="st0">
	<g class="st1">
		<path class="st2" d="M45,0"/>
		<line class="st2" x1="45" y1="60" x2="45" y2="15"/>
		<path class="st2" d="M45,37.5C45,25.1,34.9,15,22.5,15C10.1,15,0,25.1,0,37.5C0,49.9,10.1,60,22.5,60h36.2"/>
		<path class="st2" d="M45,15V7.5C45,3.4,48.4,0,52.5,0l6.2,0"/>
	</g>
</g>
<g id="char-c" class="st0">
	<g class="st1">
		<polyline class="st2" points="44.4,16.9 39,22.3 33.8,27.5 39,22.3 		"/>
		<path class="st2" d="M38.8,21.9c-4.1-4.3-9.9-6.9-16.2-6.9C10.1,15,0,25.1,0,37.5C0,49.9,10.1,60,22.5,60c6.4,0,12.2-2.7,16.2-6.9
			"/>
	</g>
</g>
<g id="char-b" class="st0">
	<g class="st1">
		<path class="st2" d="M13.8,0"/>
		<line class="st2" x1="13.7" y1="60" x2="13.7" y2="15"/>
		<path class="st2" d="M13.8,37.5C13.8,25.1,23.8,15,36.2,15c12.4,0,22.5,10.1,22.5,22.5C58.8,49.9,48.7,60,36.2,60H0"/>
		<path class="st2" d="M13.8,15V7.5c0-4.1-3.4-7.5-7.5-7.5H0"/>
	</g>
</g>
<g id="char-a" class="st0">
	<g id="group-char-a" class="st1">
		<g id="VectorText">
		</g>
		<g>
			<path class="st2" d="M1.3,15.2c1.4,1.3,2.9,2.7,4.7,3.6c4.6,2.5,8.4-0.6,12.5-2.2c6.3-2.5,12.9-2.2,17.9,4.3
				C39,24.4,38.7,30,38.7,34l0,26"/>
			<path class="st2" d="M15,30C6.7,30,0,36.7,0,45s6.7,15,15,15h30"/>
			<path class="st2" d="M14.4,30c1.7,0,3.4,0,5.1,0.3c7.9,1.4,12.8,9,19.2,0"/>
		</g>
	</g>
</g>
</svg>
